<?xml version="1.0" encoding="utf-8"?>
<!-- Generator: Adobe Illustrator 24.3.0, SVG Export Plug-In . SVG Version: 6.00 Build 0)  -->
<svg version="1.1" id="Capa_1" xmlns="http://www.w3.org/2000/svg" xmlns:xlink="http://www.w3.org/1999/xlink" x="0px" y="0px"
	 viewBox="0 0 512 512" style="enable-background:new 0 0 512 512;" xml:space="preserve">
<style type="text/css">
	.st0{fill:#422918;}
</style>
<g>
	<g>
		<g id="IydDKw_1_">
			<g>
				<path class="st0" d="M506.8,374.8c-0.1,31-22,52.2-53.4,52.4c-55.6,0.2-111.1,0.1-166.7,0.1h-89.2c-8.4,0-15.2-6.8-15.2-15.2v-3
					c0-8.4,6.8-15.2,15.2-15.2H287c54.4,0,108.7,0,163.1,0c17.3,0,23.1-5.8,23.2-22.9c0-63.6,0-127.1,0-190.7
					c0-17.2-6-23.3-22.9-23.3c-24.8-0.1-49.6,0-74.4,0c-14.7,0-18.7-3.2-22.4-17.8c-2.8-11.2-5.4-22.5-8.2-33.7
					c-2.5-10.2-8.8-15.8-19.6-15.8c-26,0-52-0.1-78,0c-10.6,0-17.1,5.4-19.3,16c-2.3,10.9-4.9,21.8-7.3,32.7
					c-3.4,15.3-7.4,18.6-22.7,18.6c-24.4,0-48.8,0-73.2,0c-17.9,0-23.7,5.8-23.7,23.6c0,38.9,0,43.9,0,82.8
					c0,8.4-6.8,15.2-15.2,15.2h-3.1c-8.4,0-15.2-6.8-15.2-15.2c0-39.4,0-44.9,0-84.2c0-34.4,20.8-55.1,55.3-55.3
					c19.2-0.1,38.4-0.3,57.6,0.1c6.9,0.1,10.2-2.2,11.5-8.9c1.2-6.3,3-12.4,4.6-18.6c6.9-26,25.2-40.2,52.2-40.3
					c25.6-0.1,51.2-0.2,76.7,0c27,0.2,45.1,14.5,52,40.6c7.1,27,7.1,27,35.5,27c14,0,28-0.3,42,0.1c29.9,0.7,51.1,21.9,51.3,51.9
					C507,242.1,507,308.4,506.8,374.8z"/>
				<path class="st0" d="M371.5,275.2c0.1,46.4-36.7,83.8-83.2,84.3c-46.8,0.5-84.6-36.9-84.8-83.9c-0.2-46.5,36.6-83.7,83.2-84.1
					C333.9,191.2,371.4,228.1,371.5,275.2z M338.6,275.1c-0.4-27.5-24.6-51.2-51.7-50.7c-27.5,0.5-51.3,25-50.4,52
					c0.9,27.3,24.2,50.1,51.1,50.1C314.9,326.4,338.9,302.2,338.6,275.1z"/>
				<path class="st0" d="M413.7,224.2c-3.2,0-6.4,0.3-9.6-0.1c-9.3-0.9-14.6-6.1-14.9-15.5c-0.3-10,5-15.8,14.8-16.8
					c5.9-0.6,12-0.4,18-0.1c10.3,0.5,17,7.2,17,16.3c0,9-7,15.7-17,16.3C419.3,224.3,416.5,224.2,413.7,224.2L413.7,224.2z"/>
			</g>
		</g>
		<path class="st0" d="M163.6,372.5v8.2c0,7-5.7,12.7-12.7,12.7h-49.8v49.8c0,7-5.7,12.7-12.7,12.7h-8.1c-7,0-12.7-5.7-12.7-12.7
			v-49.8H17.8c-7,0-12.7-5.7-12.7-12.7v-8.2c0-7,5.7-12.7,12.7-12.7h49.8V310c0-7,5.7-12.7,12.7-12.7h8.2c7,0,12.7,5.7,12.7,12.7
			v49.8H151C157.9,359.8,163.6,365.5,163.6,372.5z"/>
	</g>
</g>
</svg>
