<?xml version="1.0" encoding="utf-8"?>
<!-- Generator: Adobe Illustrator 24.3.0, SVG Export Plug-In . SVG Version: 6.00 Build 0)  -->
<svg version="1.1" id="Capa_1" xmlns="http://www.w3.org/2000/svg" xmlns:xlink="http://www.w3.org/1999/xlink" x="0px" y="0px"
	 viewBox="0 0 512 512" style="enable-background:new 0 0 512 512;" xml:space="preserve">
<style type="text/css">
	.st0{fill:#422918;}
</style>
<g>
	<g id="auBRNC_2_">
		<g>
			<path class="st0" d="M93.7,358.4c0-27.9-0.1-55.7,0.1-83.6c0-4.4-1.1-6.1-5.8-5.9c-9.2,0.4-18.5,0.4-27.7,0.4
				c-11.1,0.1-19.1-5-22.6-14.2c-3.6-9.3-1.2-18.4,7.1-25.8c46-41.1,92-82.2,137.9-123.2c19-17,38.1-33.9,57.1-51
				c11.1-10,22.8-10.2,33.9-0.1c59.1,53.4,118.2,106.8,177.4,160.2c5.6,5,11.2,10,16.7,15.1c7.7,7.2,10,16.6,6.4,25.6
				c-3.5,9-11.6,14.1-22.3,14.1c-10.3,0-20.7,0.2-31-0.1c-4.6-0.1-5.8,1.6-5.8,5.9c0.1,54.8,0.1,109.6,0.1,164.4
				c0,12.1-6.3,20.8-16.9,23.6c-2.4,0.6-4.9,0.7-7.4,0.7c-23.5,0-47,0.1-70.4,0c-15.6,0-24.3-8.7-24.4-24.5c-0.1-33.2,0-66.4,0-99.6
				c0-7.5,0-7.5-7.4-7.5c-20.5,0-41,0-61.5,0c-6.1,0-6.2,0-6.2,6.3c0,33.5,0,67,0,100.5c0,16-8.7,24.7-24.6,24.8
				c-26.1,0-52.3,0-78.4,0c-15.6,0-24.5-8.8-24.5-24.4C93.7,412.9,93.7,385.6,93.7,358.4z"/>
		</g>
	</g>
</g>
</svg>
