<?xml version="1.0" encoding="utf-8"?>
<!-- Generator: Adobe Illustrator 24.3.0, SVG Export Plug-In . SVG Version: 6.00 Build 0)  -->
<svg version="1.1" id="Capa_1" xmlns="http://www.w3.org/2000/svg" xmlns:xlink="http://www.w3.org/1999/xlink" x="0px" y="0px"
	 viewBox="0 0 512 512" style="enable-background:new 0 0 512 512;" xml:space="preserve">
<style type="text/css">
	.st0{fill:#422918;}
</style>
<g>
	<g id="_x39_ttQrB_2_">
		<g>
			<path class="st0" d="M247.4,47.6c5.7,0,11.5,0,17.2,0c3.9,0.3,7.8,0.5,11.7,0.9c15,1.6,29.8,4.5,44.1,9.2
				c28.5,9.3,53.9,24,76,44.3c27.7,25.3,47.2,55.9,58.5,91.7c4.6,14.4,7.5,29.2,8.6,44.3c0.2,3.1,0.6,6.3,0.9,9.4
				c0,5.6,0,11.2,0,16.8c-0.3,4.1-0.6,8.3-1,12.4c-1.9,18.8-6.2,37.1-13,54.8c-11.9,30.6-30.1,57-54.3,79
				c-22.1,20-47.3,34.7-75.7,43.9c-13.6,4.4-27.5,7.4-41.7,8.9c-4.7,0.5-9.4,0.9-14.1,1.3c-5.7,0-11.5,0-17.2,0
				c-1-0.1-2.1-0.3-3.1-0.4c-8.3-0.9-16.7-1.4-24.9-2.9c-28.4-5-54.7-15.5-78.7-31.6c-34.5-23.1-60-53.7-76.5-91.9
				c-8.8-20.4-14.1-41.6-15.9-63.7c-0.3-3.1-0.6-6.3-0.8-9.4c0-5.7,0-11.5,0-17.2c0.1-0.9,0.3-1.8,0.4-2.7
				c0.5-5.5,0.8-11.1,1.5-16.6c5.1-38.3,19.8-72.5,44-102.6c26.3-32.6,59.5-55.4,99.4-68.2c14.7-4.7,29.7-7.7,45.1-8.9
				C241.1,48.2,244.3,47.9,247.4,47.6z M252.7,410.1c14.2,0.2,27.8-1.4,41.3-4.8c21.6-5.5,41.1-15.4,58.5-29.4
				c5.3-4.2,9.7-9,11.9-15.6c1.9-5.9,1.7-11.9,0.9-17.9c-2.2-18.1-10.4-33.1-24.3-44.8c-13.9-11.7-30.1-16.4-48.1-16.3
				c-25.2,0.2-50.4,0.1-75.6,0c-19.4,0-36.3,6.4-50.2,19.8c-14,13.6-20.9,30.4-20.9,49.9c0,8.6,3.1,16,9.7,21.6
				C183.7,396.7,216.3,409,252.7,410.1z M256,110c-37.4-0.1-68.2,29.9-68.9,67.5c-0.7,38.8,30.3,70.5,69.1,70.3
				c38.6-0.2,67.8-31.2,68.7-67.1C325.9,141.3,294,109.8,256,110z"/>
		</g>
	</g>
</g>
</svg>
