<?xml version="1.0" encoding="utf-8"?>
<!-- Generator: Adobe Illustrator 24.3.0, SVG Export Plug-In . SVG Version: 6.00 Build 0)  -->
<svg version="1.1" id="Capa_1" xmlns="http://www.w3.org/2000/svg" xmlns:xlink="http://www.w3.org/1999/xlink" x="0px" y="0px"
	 viewBox="0 0 512 512" style="enable-background:new 0 0 512 512;" xml:space="preserve">
<style type="text/css">
	.st0{fill:#422918;}
</style>
<g>
	<g id="Iwjy2m_2_">
		<g>
			<path class="st0" d="M319.6,347.2c-81.6,60-181.8,39-234-25.3C31,254.8,35.5,158.2,96.4,97.1c61-61.2,157-66.2,224.7-12
				c64.5,51.7,86.3,152.7,26.2,234.2c19.1,18.7,38.4,37.5,57.6,56.5c17.7,17.5,35.2,35.1,52.7,52.7c7.3,7.4,9,16.2,3.9,25.4
				c-4.9,8.8-13.3,12.4-22.7,9.6c-5.3-1.5-10.3-5.8-14.4-9.8c-32.4-32.1-64.6-64.4-96.8-96.8C324.6,354.2,322.4,350.7,319.6,347.2z
				 M89,215.8c0.2,70.1,56.7,126.1,127.1,125.8c69.7-0.3,125.3-57,125.2-127.6c-0.1-68.5-56.9-124.7-125.9-124.6
				C145,89.4,88.8,145.7,89,215.8z"/>
			<path class="st0" d="M210.2,312.9c-49.9-1.2-94.1-47.2-92.8-96.5c0.3-12.4,9.1-21.7,20.6-21.7c11.2-0.1,19.9,8.3,20.9,20.2
				c3,34.2,21.2,53.1,55,57.1c15.3,1.8,22.7,9.4,21.6,22.3C234.5,306.6,225.5,313.3,210.2,312.9z"/>
		</g>
	</g>
</g>
</svg>
